<?xml version="1.0" encoding="iso-8859-1"?>
<!-- Generator: Adobe Illustrator 17.1.0, SVG Export Plug-In . SVG Version: 6.00 Build 0)  -->
<!DOCTYPE svg PUBLIC "-//W3C//DTD SVG 1.1//EN" "http://www.w3.org/Graphics/SVG/1.1/DTD/svg11.dtd">
<svg version="1.1" id="Capa_1" xmlns="http://www.w3.org/2000/svg" xmlns:xlink="http://www.w3.org/1999/xlink" x="0px" y="0px"
	 viewBox="0 0 401.672 401.672" style="enable-background:new 0 0 401.672 401.672;" xml:space="preserve">
<path d="M114.179,92.502c20.692,0,37.526-16.835,37.526-37.528c0-20.694-16.834-37.53-37.526-37.53
	c-20.695,0-37.531,16.836-37.531,37.53C76.648,75.667,93.484,92.502,114.179,92.502z M114.179,35.444
	c10.767,0,19.526,8.761,19.526,19.53c0,10.768-8.76,19.528-19.526,19.528c-10.77,0-19.531-8.76-19.531-19.528
	C94.648,44.205,103.41,35.444,114.179,35.444z M236.485,56.111l13.564,1.405c1.311,19.513,17.604,34.986,37.442,34.986
	c20.694,0,37.53-16.835,37.53-37.528c0-20.694-16.836-37.53-37.53-37.53c-15.274,0-28.447,9.174-34.298,22.301l-14.854-1.539
	c-4.939-0.513-9.367,3.081-9.88,8.025C227.949,51.176,231.542,55.599,236.485,56.111z M287.492,35.444
	c7.145,0,13.404,3.855,16.81,9.595l-31.218-3.233C276.657,37.898,281.793,35.444,287.492,35.444z M305.191,63.227
	c-3.116,6.655-9.878,11.274-17.699,11.274c-9.237,0-16.996-6.447-19.016-15.077L305.191,63.227z M92.366,241.501h43.62l7.654-71.532
	c0.528-4.942,4.958-8.528,9.906-7.991c4.942,0.529,8.52,4.964,7.991,9.906l-8.505,79.485c-0.064,0.669-0.202,1.318-0.404,1.937v0
	c0,0.002-0.001,0.003-0.002,0.005c-1.218,3.72-4.757,6.292-8.76,6.189H84.485c-0.073,0.002-0.146,0.003-0.219,0.003
	c-3.925,0-7.374-2.56-8.556-6.237c-0.195-0.605-0.329-1.24-0.392-1.894l-8.507-79.488c-0.529-4.943,3.049-9.378,7.991-9.907
	c4.941-0.533,9.378,3.048,9.907,7.991L92.366,241.501z M227.691,247.119c1.868,4.606-0.351,9.854-4.956,11.724
	c-1.108,0.45-2.254,0.663-3.381,0.663c-3.556,0-6.924-2.121-8.343-5.619l-36.09-88.951c-12.029-29.646-26.074-42.295-46.962-42.295
	h-4.78v5.158c0,4.971-4.029,9-9,9s-9-4.029-9-9v-5.158h-4.783c-20.887,0-34.932,12.649-46.964,42.296l-36.089,88.95
	c-1.868,4.606-7.118,6.825-11.724,4.956c-4.606-1.869-6.825-7.118-4.956-11.724l36.09-88.951
	c9.326-22.979,26.07-53.528,63.644-53.528h27.562c37.578,0,54.319,30.549,63.644,53.528L227.691,247.119z M101.264,285.131v90.095
	v0.002c0,4.971-4.029,9-9,9c-0.064,0-0.128,0-0.191-0.002H67.948c-4.971,0-9-4.029-9-9s4.029-9,9-9h15.316v-81.095
	c0-4.971,4.029-9,9-9S101.264,280.16,101.264,285.131z M401.01,247.119l-36.091-88.953c-9.329-22.978-26.076-53.526-63.645-53.526
	h-27.563c-36.109,0-52.409,27.683-61.528,48.505c-1.994,4.553,0.081,9.86,4.634,11.854c4.552,1.994,9.86-0.08,11.854-4.634
	c8.229-18.792,17.412-29.926,29.213-34.797v20.57h-0.291c-4.971,0-9,4.029-9,9c0,0.079,0.001,0.156,0.003,0.234v72.418
	l-8.492,116.29c-0.183,2.494,0.682,4.952,2.384,6.783c1.703,1.832,4.091,2.872,6.592,2.872h7.502v12.49h-15.318
	c-4.971,0-9,4.029-9,9s4.029,9,9,9h24.127c5.039,0.107,9.191-3.964,9.191-8.998v-21.492h25.826v21.355
	c-0.001,0.044-0.001,0.09-0.001,0.135c0,1.447,0.341,2.814,0.948,4.025c1.477,2.951,4.528,4.977,8.053,4.977
	c0.063,0,0.128,0,0.191-0.002h24.125c4.971,0,9-4.029,9-9s-4.029-9-9-9h-15.316v-12.49h7.502c2.501,0,4.889-1.041,6.592-2.872
	c1.703-1.832,2.566-4.29,2.384-6.784l-8.492-116.275v-72.667c0-4.971-4.029-9-9-9h-0.289v-20.517
	c12.653,5.295,22.423,17.851,31.137,39.314l36.09,88.951c1.868,4.606,7.117,6.824,11.724,4.956
	C400.659,256.974,402.878,251.725,401.01,247.119z M275.884,122.64h23.22v23.499h-23.22V122.64z M266.596,164.139h41.797v54.995
	h-41.797V164.139z M296.494,335.736v-53.703c0-4.971-4.029-9-9-9s-9,4.029-9,9v53.703h-19.733l7.201-98.603h43.064l7.201,98.603
	H296.494z M169.407,375.226c0,4.971-4.029,9-9,9h-24.125c-0.063,0.001-0.127,0.002-0.191,0.002c-4.971,0-9-4.029-9-9v-90.097
	c0-4.971,4.029-9,9-9s9,4.029,9,9v81.095h15.316C165.378,366.226,169.407,370.255,169.407,375.226z M114.179,207.72
	c-4.971,0-9-4.029-9-9v-43.611c0-4.971,4.029-9,9-9s9,4.029,9,9v43.611C123.179,203.691,119.15,207.72,114.179,207.72z"/>
<g>
</g>
<g>
</g>
<g>
</g>
<g>
</g>
<g>
</g>
<g>
</g>
<g>
</g>
<g>
</g>
<g>
</g>
<g>
</g>
<g>
</g>
<g>
</g>
<g>
</g>
<g>
</g>
<g>
</g>
</svg>
